# xmcd
#
# Track frame offsets:
#	150
#	13460
#	25927
#	37172
#	48792
#	61560
#	76102
#	86875
#	97930
#	109465
#	122042
#	132305
#	145095
#	156715
#	167420
#	178300
#	188545
#	196057
#	204107
#	216060
#	225890
#	238002
#	249037
#	258090
#	266975
#
# Disc length: 3702 seconds
#
# Revision: 4
# Processed by: cddbd v1.5.2PL0 Copyright (c) Steve Scherf et al.
# Submitted via: EZCDAudioConverter 2.2.2.1
#
DISCID=4d0e7419
DTITLE=Claude King - Wolverton Mountain
DYEAR=1994
DGENRE=Country
TTITLE0=Flying Saucers
TTITLE1=I Want To Be Loved
TTITLE2=A Million Mistakes
TTITLE3=Why Should I
TTITLE4=Beers And Pinballs
TTITLE5=Fiftyone Beers
TTITLE6=She Knows Why
TTITLE7=She's My Baby
TTITLE8=Take It Like A Man
TTITLE9=So Close To Me
TTITLE10=Got The World By The Tail
TTITLE11=Slow Thinking Heart
TTITLE12=I Think Of You And Me
TTITLE13=Now That I Love You
TTITLE14=My Future Life Will Be My Past
TTITLE15=Over Again
TTITLE16=Run Baby Run
TTITLE17=Not Sure Of You
TTITLE18=Big River, Big Man (version 1)
TTITLE19=Sweet Loving
TTITLE20=She Knows Why
TTITLE21=Big River, Big Man (version 2)
TTITLE22=Sweet Loving
TTITLE23=The Comancheros (version 1)
TTITLE24=I Can't Get Over The Way You Got Over Me
EXTD=
EXTT0=
EXTT1=
EXTT2=
EXTT3=
EXTT4=
EXTT5=
EXTT6=
EXTT7=
EXTT8=
EXTT9=
EXTT10=
EXTT11=
EXTT12=
EXTT13=
EXTT14=
EXTT15=
EXTT16=
EXTT17=
EXTT18=
EXTT19=
EXTT20=
EXTT21=
EXTT22=
EXTT23=
EXTT24=
PLAYORDER=
